<svg width="150" height="150" viewBox="0 0 150 150" fill="none" xmlns="http://www.w3.org/2000/svg">
<path d="M145.312 96.0938V100.781C145.312 102.024 144.819 103.217 143.94 104.096C143.06 104.975 141.868 105.469 140.625 105.469H126.562V91.4062H140.625C141.868 91.4062 143.06 91.9001 143.94 92.7792C144.819 93.6583 145.312 94.8505 145.312 96.0938Z" fill="#C7E0FF"/>
<path d="M75 39.8438C76.2944 39.8438 77.3438 38.7944 77.3438 37.5C77.3438 36.2056 76.2944 35.1562 75 35.1562C73.7056 35.1562 72.6562 36.2056 72.6562 37.5C72.6562 38.7944 73.7056 39.8438 75 39.8438Z" fill="#C7E0FF"/>
<path d="M119.531 35.1562V58.5938H16.4062C13.2982 58.5938 10.3175 57.3591 8.11984 55.1614C5.92215 52.9637 4.6875 49.983 4.6875 46.875C4.6875 43.767 5.92215 40.7863 8.11984 38.5886C10.3175 36.3909 13.2982 35.1562 16.4062 35.1562H56.8389C57.8797 39.1814 60.2282 42.7467 63.5155 45.292C66.8028 47.8374 70.8425 49.2185 75 49.2185C79.1575 49.2185 83.1972 47.8374 86.4845 45.292C89.7718 42.7467 92.1203 39.1814 93.1611 35.1562H119.531Z" fill="#C7E0FF"/>
<path d="M126.562 58.5937H119.531V57.917L126.562 58.5937Z" fill="#C7E0FF"/>
<path d="M75 39.8438C76.2944 39.8438 77.3438 38.7944 77.3438 37.5C77.3438 36.2056 76.2944 35.1562 75 35.1562C73.7056 35.1562 72.6562 36.2056 72.6562 37.5C72.6562 38.7944 73.7056 39.8438 75 39.8438Z" fill="#C7E0FF"/>
<path d="M75 39.8438C76.2944 39.8438 77.3438 38.7944 77.3438 37.5C77.3438 36.2056 76.2944 35.1562 75 35.1562C73.7056 35.1562 72.6562 36.2056 72.6562 37.5C72.6562 38.7944 73.7056 39.8438 75 39.8438Z" fill="#C7E0FF"/>
<path d="M140.625 89.0625H138.281V58.5938C138.281 57.9721 138.034 57.376 137.595 56.9365C137.155 56.4969 136.559 56.25 135.938 56.25H121.875V35.1562C121.875 34.5346 121.628 33.9385 121.189 33.499C120.749 33.0594 120.153 32.8125 119.531 32.8125H95.959C96.0483 32.0344 96.0933 31.2519 96.0938 30.4688C96.0937 24.8743 93.8714 19.5091 89.9155 15.5532C85.9597 11.5974 80.5944 9.375 75 9.375C69.4056 9.375 64.0403 11.5974 60.0845 15.5532C56.1286 19.5091 53.9062 24.8743 53.9062 30.4688C53.9067 31.2519 53.9517 32.0344 54.041 32.8125H16.4062C12.6779 32.8165 9.1033 34.2993 6.46693 36.9357C3.83056 39.5721 2.34771 43.1466 2.34375 46.875V126.562C2.34771 130.291 3.83056 133.865 6.46693 136.502C9.1033 139.138 12.6779 140.621 16.4062 140.625H135.938C136.559 140.625 137.155 140.378 137.595 139.939C138.034 139.499 138.281 138.903 138.281 138.281V107.812H140.625C142.489 107.81 144.276 107.068 145.594 105.75C146.912 104.432 147.654 102.645 147.656 100.781V96.0938C147.654 94.2297 146.912 92.4427 145.594 91.1246C144.276 89.8066 142.489 89.065 140.625 89.0625V89.0625ZM75 14.0625C78.2448 14.0625 81.4168 15.0247 84.1148 16.8275C86.8128 18.6302 88.9156 21.1925 90.1574 24.1903C91.3991 27.1882 91.724 30.4869 91.091 33.6695C90.458 36.852 88.8954 39.7753 86.601 42.0697C84.3065 44.3642 81.3832 45.9267 78.2007 46.5598C75.0182 47.1928 71.7195 46.8679 68.7216 45.6262C65.7238 44.3844 63.1614 42.2816 61.3587 39.5836C59.556 36.8856 58.5938 33.7136 58.5938 30.4688C58.5986 26.119 60.3286 21.9488 63.4043 18.8731C66.4801 15.7974 70.6503 14.0673 75 14.0625V14.0625ZM16.4062 37.5H55.1162C56.5694 41.6124 59.262 45.173 62.823 47.6915C66.3841 50.2099 70.6384 51.5623 75 51.5623C79.3616 51.5623 83.6159 50.2099 87.177 47.6915C90.738 45.173 93.4306 41.6124 94.8838 37.5H117.188V56.25H16.4062C13.9198 56.25 11.5353 55.2623 9.77712 53.5041C8.01897 51.746 7.03125 49.3614 7.03125 46.875C7.03125 44.3886 8.01897 42.004 9.77712 40.2459C11.5353 38.4877 13.9198 37.5 16.4062 37.5V37.5ZM133.594 135.938H16.4062C13.9207 135.935 11.5378 134.946 9.78021 133.189C8.02266 131.431 7.03404 129.048 7.03125 126.562V57.3457C9.60494 59.6605 12.9447 60.94 16.4062 60.9375H133.594V89.0625H126.562C125.941 89.0625 125.345 89.3094 124.905 89.749C124.466 90.1885 124.219 90.7846 124.219 91.4062V105.469C124.219 106.09 124.466 106.686 124.905 107.126C125.345 107.566 125.941 107.812 126.562 107.812H133.594V135.938ZM142.969 100.781C142.968 101.403 142.721 101.998 142.281 102.438C141.842 102.877 141.246 103.124 140.625 103.125H128.906V93.75H140.625C141.246 93.7509 141.842 93.9981 142.281 94.4374C142.721 94.8768 142.968 95.4724 142.969 96.0938V100.781Z" fill="#6379F4"/>
<path d="M98.4375 125C97.8159 125 97.2198 125.247 96.7802 125.686C96.3407 126.126 96.0938 126.722 96.0938 127.344C96.0938 127.965 96.3407 128.561 96.7802 129.001C97.2198 129.441 97.8159 129.688 98.4375 129.688H126.562C127.184 129.688 127.78 129.441 128.22 129.001C128.659 128.561 128.906 127.965 128.906 127.344C128.906 126.722 128.659 126.126 128.22 125.686C127.78 125.247 127.184 125 126.562 125H98.4375Z" fill="#6379F4"/>
<path d="M91.4062 125H89.0625C88.4409 125 87.8448 125.247 87.4052 125.686C86.9657 126.126 86.7188 126.722 86.7188 127.344C86.7188 127.965 86.9657 128.561 87.4052 129.001C87.8448 129.441 88.4409 129.688 89.0625 129.688H91.4062C92.0279 129.688 92.624 129.441 93.0635 129.001C93.5031 128.561 93.75 127.965 93.75 127.344C93.75 126.722 93.5031 126.126 93.0635 125.686C92.624 125.247 92.0279 125 91.4062 125Z" fill="#6379F4"/>
<path d="M75 39.8438C76.2944 39.8438 77.3438 38.7944 77.3438 37.5C77.3438 36.2056 76.2944 35.1562 75 35.1562C73.7056 35.1562 72.6562 36.2056 72.6562 37.5C72.6562 38.7944 73.7056 39.8438 75 39.8438Z" fill="#6379F4"/>
<path d="M81.2511 30.5127C79.5322 28.9751 77.3068 28.125 75.0006 28.125C72.6943 28.125 70.469 28.9751 68.7501 30.5127C68.5179 30.7172 68.3284 30.9656 68.1927 31.2436C68.0569 31.5216 67.9776 31.8238 67.9592 32.1326C67.9408 32.4415 67.9838 32.7509 68.0856 33.0431C68.1874 33.3352 68.3461 33.6043 68.5524 33.8349C68.7587 34.0654 69.0087 34.2528 69.2878 34.3863C69.5669 34.5198 69.8697 34.5967 70.1787 34.6125C70.4877 34.6284 70.7967 34.5829 71.0881 34.4787C71.3794 34.3745 71.6472 34.2137 71.8761 34.0055C72.7354 33.2371 73.8478 32.8123 75.0006 32.8123C76.1534 32.8123 77.2657 33.2371 78.1251 34.0055C78.354 34.2137 78.6218 34.3745 78.9131 34.4787C79.2044 34.5829 79.5135 34.6284 79.8225 34.6125C80.1315 34.5967 80.4342 34.5198 80.7134 34.3863C80.9925 34.2528 81.2424 34.0654 81.4488 33.8349C81.6551 33.6043 81.8137 33.3352 81.9156 33.0431C82.0174 32.7509 82.0603 32.4415 82.0419 32.1326C82.0236 31.8238 81.9442 31.5216 81.8085 31.2436C81.6727 30.9656 81.4833 30.7172 81.2511 30.5127V30.5127Z" fill="#6379F4"/>
<path d="M67.1886 28.7647C69.337 26.8433 72.1182 25.781 75.0006 25.781C77.8829 25.781 80.6641 26.8433 82.8126 28.7647C83.0414 28.9729 83.3093 29.1338 83.6006 29.2379C83.8919 29.3421 84.201 29.3876 84.51 29.3717C84.819 29.3559 85.1217 29.279 85.4009 29.1455C85.68 29.0121 85.9299 28.8247 86.1363 28.5941C86.3426 28.3636 86.5012 28.0944 86.603 27.8023C86.7049 27.5101 86.7478 27.2007 86.7294 26.8918C86.7111 26.583 86.6317 26.2808 86.496 26.0028C86.3602 25.7248 86.1708 25.4764 85.9386 25.2719C82.9306 22.5813 79.0364 21.0938 75.0006 21.0938C70.9648 21.0938 67.0706 22.5813 64.0626 25.2719C63.8304 25.4764 63.6409 25.7248 63.5052 26.0028C63.3694 26.2808 63.2901 26.583 63.2717 26.8918C63.2533 27.2007 63.2963 27.5101 63.3981 27.8023C63.4999 28.0944 63.6585 28.3636 63.8649 28.5941C64.0712 28.8247 64.3212 29.0121 64.6003 29.1455C64.8794 29.279 65.1822 29.3559 65.4912 29.3717C65.8002 29.3876 66.1092 29.3421 66.4006 29.2379C66.6919 29.1338 66.9597 28.9729 67.1886 28.7647Z" fill="#6379F4"/>
<path d="M15 129V121.8L43.4022 83.1957H15V75H54.8547V82.2L26.4525 120.804H56V129H15Z" fill="#6379F4"/>
</svg>
